<svg width="17" height="12" viewBox="0 0 17 12" fill="none" xmlns="http://www.w3.org/2000/svg">
<path d="M14.7709 6.57093H1.48952C1.31041 6.57093 1.16326 6.51324 1.04806 6.39787C0.932687 6.28267 0.875 6.13543 0.875 5.95614C0.875 5.77703 0.932687 5.62987 1.04806 5.51468C1.16326 5.3993 1.31041 5.34162 1.48952 5.34162H14.7709L10.5335 1.10416C10.4125 0.983367 10.3531 0.840638 10.3552 0.675972C10.3572 0.511486 10.4221 0.365326 10.55 0.237492C10.6708 0.116701 10.8135 0.0563049 10.9782 0.0563049C11.1427 0.0563049 11.2854 0.120222 11.4064 0.248055L16.5771 5.40824C16.6603 5.49852 16.7218 5.58708 16.7615 5.67393C16.8011 5.76078 16.8209 5.85485 16.8209 5.95614C16.8209 6.06447 16.8011 6.16206 16.7615 6.24891C16.7218 6.33576 16.6603 6.42089 16.5771 6.5043L11.4334 11.6583C11.3125 11.7791 11.1697 11.8413 11.0052 11.8449C10.8406 11.8483 10.6944 11.7861 10.5668 11.6583C10.4389 11.5306 10.375 11.3835 10.375 11.2168C10.375 11.05 10.4389 10.9027 10.5668 10.7751L14.7709 6.57093Z" fill="white"/>
</svg>
