<svg width="17" height="12" viewBox="0 0 17 12" fill="none" xmlns="http://www.w3.org/2000/svg">
<path d="M2.22908 5.42907L15.5105 5.42907C15.6896 5.42907 15.8367 5.48676 15.9519 5.60213C16.0673 5.71733 16.125 5.86457 16.125 6.04386C16.125 6.22297 16.0673 6.37013 15.9519 6.48532C15.8367 6.6007 15.6896 6.65838 15.5105 6.65838L2.22908 6.65838L6.46654 10.8958C6.58751 11.0166 6.64692 11.1594 6.64475 11.324C6.64276 11.4885 6.57785 11.6347 6.45002 11.7625C6.32923 11.8833 6.1865 11.9437 6.02183 11.9437C5.85735 11.9437 5.71462 11.8798 5.59365 11.7519L0.422895 6.59176C0.339659 6.50148 0.27818 6.41292 0.238458 6.32607C0.198916 6.23922 0.179145 6.14515 0.179145 6.04386C0.179145 5.93553 0.198916 5.83794 0.238458 5.75109C0.27818 5.66424 0.339659 5.57911 0.422895 5.4957L5.56656 0.341737C5.68754 0.220944 5.83026 0.158744 5.99475 0.155132C6.15942 0.151702 6.30558 0.213903 6.43323 0.341737C6.56106 0.469389 6.62498 0.616543 6.62498 0.783195C6.62498 0.950028 6.56106 1.09727 6.43323 1.22492L2.22908 5.42907Z" fill="white"/>
</svg>
