<svg width="142" height="12" viewBox="0 0 142 12" fill="none" xmlns="http://www.w3.org/2000/svg">
<g clip-path="url(#clip0_9_161)">
<path d="M4.8087 11.9779C3.9191 11.9779 3.06246 11.8297 2.22228 11.5331C1.38211 11.2366 0.640777 10.8248 -0.00170898 10.2811L0.854939 9.06205C1.31621 9.50685 1.90928 9.8528 2.61766 10.0999C3.32604 10.3635 4.06737 10.4953 4.8087 10.4953C5.73124 10.4953 6.47257 10.3141 7.01622 9.96812C7.55986 9.62216 7.83992 9.17737 7.83992 8.60078C7.83992 8.07361 7.59281 7.66176 7.09859 7.34875C6.60437 7.05222 5.79714 6.82158 4.69338 6.65684C3.12835 6.42621 1.99165 6.04731 1.29974 5.50366C0.607829 4.96002 0.261875 4.20222 0.261875 3.21378C0.261875 2.60424 0.443089 2.04412 0.821991 1.56638C1.20089 1.08863 1.71159 0.70973 2.38702 0.429672C3.06246 0.149614 3.82026 0.0178223 4.66043 0.0178223C5.43471 0.0178223 6.19252 0.149614 6.93385 0.396724C7.6587 0.660308 8.31766 1.02274 8.89425 1.50048L8.05408 2.63719C7.5928 2.25829 7.06564 1.96175 6.47257 1.74759C5.87951 1.53343 5.28645 1.43459 4.67691 1.43459C3.85321 1.43459 3.17777 1.59933 2.65061 1.94528C2.12344 2.29123 1.85985 2.71956 1.85985 3.24673C1.85985 3.75742 2.09049 4.16927 2.56824 4.4658C3.02951 4.76233 3.78731 4.99297 4.85812 5.17418C5.97835 5.3554 6.86795 5.56956 7.54338 5.84962C8.20234 6.14615 8.68009 6.4921 8.9931 6.92043C9.3061 7.36523 9.45437 7.90887 9.45437 8.55135C9.45437 9.22679 9.25668 9.83633 8.87778 10.347C8.49887 10.8742 7.95523 11.286 7.26333 11.5496C6.55494 11.8462 5.74772 11.9779 4.8087 11.9779Z" fill="black"/>
<path d="M14.0341 0.231934H19.2893C20.113 0.231934 20.8379 0.396673 21.4474 0.726153C22.057 1.05563 22.5347 1.51691 22.8807 2.10997C23.2101 2.71951 23.3749 3.41142 23.3749 4.18569C23.3749 4.97645 23.2101 5.66835 22.8807 6.26142C22.5347 6.87096 22.057 7.33223 21.4474 7.66171C20.8379 7.99119 20.113 8.15593 19.2893 8.15593H15.6321V11.7637H14.0341V0.231934ZM19.207 6.67327C19.9977 6.67327 20.6237 6.44263 21.1015 5.98136C21.5627 5.53656 21.7934 4.92702 21.7934 4.18569C21.7934 3.44436 21.5627 2.83483 21.1015 2.39003C20.6237 1.94523 19.9977 1.71459 19.207 1.71459H15.6321V6.67327H19.207Z" fill="black"/>
<path d="M46.8668 11.9943C45.6971 11.9943 44.6757 11.7307 43.7697 11.22C42.8636 10.7093 42.1552 10.0009 41.6445 9.09487C41.1338 8.1888 40.8702 7.15094 40.8702 5.99776C40.8702 4.84458 41.1338 3.80671 41.6445 2.90064C42.1552 1.99457 42.8636 1.28619 43.7697 0.759025C44.6757 0.248331 45.6971 0.0012207 46.8668 0.0012207C47.6905 0.0012207 48.4648 0.149487 49.1896 0.446019C49.898 0.759025 50.5405 1.20382 51.1171 1.78041L50.0133 2.76885C49.2061 1.92868 48.1682 1.50035 46.9162 1.50035C46.0431 1.50035 45.2853 1.68157 44.6098 2.06047C43.9344 2.43937 43.4237 2.98301 43.0448 3.65845C42.6659 4.33388 42.4847 5.12463 42.4847 5.99776C42.4847 6.87088 42.6659 7.66163 43.0448 8.33706C43.4237 9.0125 43.9344 9.55614 44.6098 9.91857C45.2853 10.2975 46.0431 10.4952 46.9162 10.4952C47.5257 10.4952 48.1023 10.3798 48.6624 10.1492C49.2226 9.93504 49.7168 9.62204 50.1286 9.21019L51.183 10.281C50.0133 11.4177 48.5801 11.9943 46.8668 11.9943Z" fill="black"/>
<path d="M55.6639 0.231934H64.0163V1.71459H57.2619V5.19061H63.7197V6.65679H57.2619V10.2646H64.1151V11.7637H55.6639V0.231934Z" fill="black"/>
<path d="M75.6304 0.231934H77.2284V5.14119H83.7027V0.231934H85.3007V11.7637H83.7027V6.64032H77.2284V11.7637H75.6304V0.231934Z" fill="black"/>
<path d="M103.356 0.231934H105.069L107.195 5.43772L109.007 9.91865L112.928 0.231934H114.641L109.88 11.7637H108.134L103.356 0.231934Z" fill="black"/>
<path d="M118.858 0.231934H127.211V1.71459H120.456V5.19061H126.914V6.65679H120.456V10.2646H127.309V11.7637H118.858V0.231934Z" fill="black"/>
<path d="M132.202 0.231934H133.668L140.291 9.01258V0.231934H141.889V11.7637H140.423L133.8 2.96662V11.7637H132.202V0.231934Z" fill="black"/>
<path fill-rule="evenodd" clip-rule="evenodd" d="M89.4536 11.7625H91.1999L95.5326 1.89446L99.8651 11.7625H101.611L96.4386 0.230713H94.6264L89.4536 11.7625Z" fill="black"/>
<path fill-rule="evenodd" clip-rule="evenodd" d="M25.7324 11.7625H27.4786L31.8111 1.89446L36.1439 11.7625H37.8901L32.7174 0.230713H30.9051L25.7324 11.7625Z" fill="black"/>
</g>
<defs>
<clipPath id="clip0_9_161">
<rect width="141.9" height="12" fill="white"/>
</clipPath>
</defs>
</svg>
